# xmcd
#
# Track frame offsets: 
#        150
#        81719
#        113086
#        133858
#        161959
#        188359
#        212365
#        236371
#        253412
#        267624
#        288125
#
# Disc length: 4045 seconds
#
# Revision: 0
# Processed by: cddbd v1.5.2PL0 Copyright (c) Steve Scherf et al.
# Submitted via: ExactAudioCopyFreeDBPlugin 1.0
#
DISCID=a20fcb0b
DTITLE=Various Artist - Hammam Cafe - The Finest Oriental Lounge
DYEAR=2002
DGENRE=Ethnic
TTITLE0=The 1001 Nights Project - Leily
TTITLE1=Natasha Atlas - Duden
TTITLE2=Yasser Habeeb - Ama
TTITLE3=Ihlam Al Madafai - Chal Chal Alayea El Rumman
TTITLE4=Khalid Al Shaikh - Likol Qessat Hob
TTITLE5=Julia Boutros - Wayn Msafer
TTITLE6=Gassan E El Rahbani - Dimouni Am Tinzil
TTITLE7=Claude Ciari - Addaish Kan Fi Nass
TTITLE8=Nasser El Assaad - Merva
TTITLE9=Omar Khairat - Arabian Rhapsody
TTITLE10=Unknown - Untitled
EXTD=
EXTT0=
EXTT1=
EXTT2=
EXTT3=
EXTT4=
EXTT5=
EXTT6=
EXTT7=
EXTT8=
EXTT9=
EXTT10=
PLAYORDER=
